{
  "asset": {
    "extras": {
      "author": "Moderately_damp (https://sketchfab.com/Moderately_damp)",
      "license": "CC-BY-4.0 (http://creativecommons.org/licenses/by/4.0/)",
      "source": "https://sketchfab.com/3d-models/red-lego-car-f55e4d6ed9354e3e933a28879153716b",
      "title": "Red Lego Car"
    },
    "generator": "gltfeditor.com",
    "version": "2.0"
  },
  "buffers": [
    {
      "uri": "data:application/octet-stream;base64,",
      "byteLength": 1456024
    }
  ],
  "bufferViews": [
    {
      "buffer": 0,
      "byteOffset": 0,
      "byteLength": 445248,
      "byteStride": 24,
      "target": 34962
    },
    {
      "buffer": 0,
      "byteOffset": 445248,
      "byteLength": 148416,
      "byteStride": 8,
      "target": 34962
    },
    {
      "buffer": 0,
      "byteOffset": 593664,
      "byteLength": 169416,
      "target": 34963
    },
    {
      "buffer": 0,
      "byteOffset": 763080,
      "byteLength": 24048,
      "byteStride": 24,
      "target": 34962
    },
    {
      "buffer": 0,
      "byteOffset": 787128,
      "byteLength": 8016,
      "byteStride": 8,
      "target": 34962
    },
    {
      "buffer": 0,
      "byteOffset": 795144,
      "byteLength": 8928,
      "target": 34963
    },
    {
      "buffer": 0,
      "byteOffset": 804072,
      "byteLength": 399552,
      "byteStride": 24,
      "target": 34962
    },
    {
      "buffer": 0,
      "byteOffset": 1203624,
      "byteLength": 133184,
      "byteStride": 8,
      "target": 34962
    },
    {
      "buffer": 0,
      "byteOffset": 1336808,
      "byteLength": 101616,
      "target": 34963
    },
    {
      "buffer": 0,
      "byteOffset": 1438424,
      "byteLength": 10176,
      "byteStride": 24,
      "target": 34962
    },
    {
      "buffer": 0,
      "byteOffset": 1448600,
      "byteLength": 3392,
      "byteStride": 8,
      "target": 34962
    },
    {
      "buffer": 0,
      "byteOffset": 1451992,
      "byteLength": 4032,
      "target": 34963
    }
  ],
  "accessors": [
    {
      "bufferView": 0,
      "byteOffset": 0,
      "componentType": 5126,
      "normalized": false,
      "count": 18552,
      "min": [
        -1,
        -1,
        -1
      ],
      "max": [
        1,
        1,
        1
      ],
      "type": "VEC3"
    },
    {
      "bufferView": 0,
      "byteOffset": 12,
      "componentType": 5126,
      "normalized": false,
      "count": 18552,
      "min": [
        -80.86632537841797,
        20.35242462158203,
        -180.13702392578125
      ],
      "max": [
        86.04090118408203,
        218.5763702392578,
        182.77545166015625
      ],
      "type": "VEC3"
    },
    {
      "bufferView": 1,
      "byteOffset": 0,
      "componentType": 5126,
      "normalized": false,
      "count": 18552,
      "min": [
        0,
        0
      ],
      "max": [
        1,
        1
      ],
      "type": "VEC2"
    },
    {
      "bufferView": 2,
      "byteOffset": 0,
      "componentType": 5125,
      "normalized": false,
      "count": 42354,
      "min": [
        0
      ],
      "max": [
        18551
      ],
      "type": "SCALAR"
    },
    {
      "bufferView": 3,
      "byteOffset": 0,
      "componentType": 5126,
      "normalized": false,
      "count": 1002,
      "min": [
        -1,
        -1,
        -1
      ],
      "max": [
        1,
        1,
        1
      ],
      "type": "VEC3"
    },
    {
      "bufferView": 3,
      "byteOffset": 12,
      "componentType": 5126,
      "normalized": false,
      "count": 1002,
      "min": [
        -73.06676483154297,
        89.34716796875,
        35.26612091064453
      ],
      "max": [
        74.57923126220703,
        194.50323486328125,
        199.72549438476562
      ],
      "type": "VEC3"
    },
    {
      "bufferView": 4,
      "byteOffset": 0,
      "componentType": 5126,
      "normalized": false,
      "count": 1002,
      "min": [
        0,
        -2.421438694000244e-8
      ],
      "max": [
        1,
        1
      ],
      "type": "VEC2"
    },
    {
      "bufferView": 5,
      "byteOffset": 0,
      "componentType": 5125,
      "normalized": false,
      "count": 2232,
      "min": [
        0
      ],
      "max": [
        1001
      ],
      "type": "SCALAR"
    },
    {
      "bufferView": 6,
      "byteOffset": 0,
      "componentType": 5126,
      "normalized": false,
      "count": 16648,
      "min": [
        -1,
        -1,
        -1
      ],
      "max": [
        1,
        1,
        1
      ],
      "type": "VEC3"
    },
    {
      "bufferView": 6,
      "byteOffset": 12,
      "componentType": 5126,
      "normalized": false,
      "count": 16648,
      "min": [
        -113.39586639404297,
        -7.292472839355469,
        -156.92132568359375
      ],
      "max": [
        118.33557891845703,
        144.49655151367188,
        183.76824951171875
      ],
      "type": "VEC3"
    },
    {
      "bufferView": 7,
      "byteOffset": 0,
      "componentType": 5126,
      "normalized": false,
      "count": 16648,
      "min": [
        0,
        0
      ],
      "max": [
        1.0000001192092896,
        0.75
      ],
      "type": "VEC2"
    },
    {
      "bufferView": 8,
      "byteOffset": 0,
      "componentType": 5125,
      "normalized": false,
      "count": 25404,
      "min": [
        0
      ],
      "max": [
        16647
      ],
      "type": "SCALAR"
    },
    {
      "bufferView": 9,
      "byteOffset": 0,
      "componentType": 5126,
      "normalized": false,
      "count": 424,
      "min": [
        -1,
        -1,
        -1
      ],
      "max": [
        1,
        1,
        1
      ],
      "type": "VEC3"
    },
    {
      "bufferView": 9,
      "byteOffset": 12,
      "componentType": 5126,
      "normalized": false,
      "count": 424,
      "min": [
        -72.57946014404297,
        89.34716796875,
        171.59315490722656
      ],
      "max": [
        74.46326446533203,
        126.0445556640625,
        192.64178466796875
      ],
      "type": "VEC3"
    },
    {
      "bufferView": 10,
      "byteOffset": 0,
      "componentType": 5126,
      "normalized": false,
      "count": 424,
      "min": [
        0.013244000263512135,
        0
      ],
      "max": [
        0.994717001914978,
        1
      ],
      "type": "VEC2"
    },
    {
      "bufferView": 11,
      "byteOffset": 0,
      "componentType": 5125,
      "normalized": false,
      "count": 1008,
      "min": [
        0
      ],
      "max": [
        423
      ],
      "type": "SCALAR"
    }
  ],
  "scene": 0,
  "scenes": [
    {
      "nodes": [
        7
      ],
      "name": "Sketchfab_Scene"
    }
  ],
  "nodes": [
    {
      "name": "L1x4Flat5_LegoRed_0",
      "mesh": 0
    },
    {
      "name": "L1x4Flat5_LegoGlass_0",
      "mesh": 1
    },
    {
      "name": "L1x4Flat5_LegoBlackPhong_0",
      "mesh": 2
    },
    {
      "name": "L1x4Flat5_lambert4_0",
      "mesh": 3
    },
    {
      "name": "L1x4Flat5",
      "children": [
        0,
        1,
        2,
        3
      ]
    },
    {
      "name": "RootNode",
      "children": [
        4
      ]
    },
    {
      "name": "832e6636628e40c4a4aa5041fcecd508.fbx",
      "children": [
        5
      ],
      "matrix": [
        0.009999999776482582,
        0,
        0,
        0,
        0,
        3.42285422227917e-10,
        0.009999999776482582,
        0,
        0,
        -0.009999999776482582,
        3.42285422227917e-10,
        0,
        0,
        0,
        0,
        1
      ]
    },
    {
      "name": "Sketchfab_model",
      "children": [
        6
      ],
      "matrix": [
        1,
        0,
        0,
        0,
        0,
        3.422854177870249e-8,
        -0.9999999403953552,
        0,
        0,
        0.9999999403953552,
        3.422854177870249e-8,
        0,
        0,
        0,
        0,
        1
      ]
    }
  ],
  "meshes": [
    {
      "primitives": [
        {
          "material": 0,
          "mode": 4,
          "attributes": {
            "NORMAL": 0,
            "POSITION": 1,
            "TEXCOORD_0": 2
          },
          "indices": 3
        }
      ]
    },
    {
      "primitives": [
        {
          "material": 1,
          "mode": 4,
          "attributes": {
            "NORMAL": 4,
            "POSITION": 5,
            "TEXCOORD_0": 6
          },
          "indices": 7
        }
      ]
    },
    {
      "primitives": [
        {
          "material": 2,
          "mode": 4,
          "attributes": {
            "NORMAL": 8,
            "POSITION": 9,
            "TEXCOORD_0": 10
          },
          "indices": 11
        }
      ]
    },
    {
      "primitives": [
        {
          "material": 3,
          "mode": 4,
          "attributes": {
            "NORMAL": 12,
            "POSITION": 13,
            "TEXCOORD_0": 14
          },
          "indices": 15
        }
      ]
    }
  ],
  "materials": [
    {
      "name": "LegoRed",
      "pbrMetallicRoughness": {
        "baseColorFactor": [
          0.1843137254901961,
          0.11764705882352941,
          0.592156862745098,
          1
        ],
        "metallicFactor": 0,
        "roughnessFactor": 0.7885257473118872
      },
      "emissiveFactor": [
        0,
        0,
        0
      ],
      "alphaMode": "OPAQUE",
      "doubleSided": true
    },
    {
      "name": "LegoGlass",
      "pbrMetallicRoughness": {
        "baseColorFactor": [
          0.00392156862745098,
          0.23137254901960785,
          0.43529411764705883,
          0.41295363947775837
        ],
        "metallicFactor": 0.5775255696017358,
        "roughnessFactor": 0.5139032804671405
      },
      "emissiveFactor": [
        0,
        0,
        0
      ],
      "alphaMode": "BLEND",
      "doubleSided": true
    },
    {
      "name": "LegoBlackPhong",
      "pbrMetallicRoughness": {
        "baseColorFactor": [
          0.047058823529411764,
          0.047058823529411764,
          0.047058823529411764,
          1
        ],
        "metallicFactor": 0,
        "roughnessFactor": 0.7885257473118872
      },
      "emissiveFactor": [
        0,
        0,
        0
      ],
      "alphaMode": "OPAQUE",
      "doubleSided": true
    },
    {
      "name": "lambert4",
      "pbrMetallicRoughness": {
        "baseColorFactor": [
          0.8196078431372549,
          0.4745098039215686,
          0,
          0.30933427606636515
        ],
        "metallicFactor": 0,
        "roughnessFactor": 0.6
      },
      "emissiveFactor": [
        0.2784313725490196,
        0.1450980392156863,
        0
      ],
      "alphaMode": "BLEND",
      "doubleSided": true,
      "extensions": {
        "KHR_materials_emissive_strength": {
          "emissiveStrength": 1.2647657592861234
        }
      }
    }
  ],
  "extensionsUsed": [
    "KHR_materials_emissive_strength"
  ]
}