{
  "accessors": [
    {
      "bufferView": 2,
      "componentType": 5126,
      "count": 18552,
      "max": [
        86.04090118408203,
        218.5763702392578,
        182.77545166015625
      ],
      "min": [
        -80.86632537841797,
        20.35242462158203,
        -180.13702392578125
      ],
      "type": "VEC3"
    },
    {
      "bufferView": 2,
      "byteOffset": 222624,
      "componentType": 5126,
      "count": 18552,
      "max": [
        1.0,
        1.0,
        1.0
      ],
      "min": [
        -1.0,
        -1.0,
        -1.0
      ],
      "type": "VEC3"
    },
    {
      "bufferView": 1,
      "componentType": 5126,
      "count": 18552,
      "max": [
        1.0,
        1.0
      ],
      "min": [
        0.0,
        0.0
      ],
      "type": "VEC2"
    },
    {
      "bufferView": 0,
      "componentType": 5125,
      "count": 42354,
      "type": "SCALAR"
    },
    {
      "bufferView": 2,
      "byteOffset": 445248,
      "componentType": 5126,
      "count": 1002,
      "max": [
        74.57923126220703,
        194.50323486328125,
        199.72549438476563
      ],
      "min": [
        -73.06676483154297,
        89.34716796875,
        35.26612091064453
      ],
      "type": "VEC3"
    },
    {
      "bufferView": 2,
      "byteOffset": 457272,
      "componentType": 5126,
      "count": 1002,
      "max": [
        1.0,
        1.0,
        1.0
      ],
      "min": [
        -1.0,
        -1.0,
        -1.0
      ],
      "type": "VEC3"
    },
    {
      "bufferView": 1,
      "byteOffset": 148416,
      "componentType": 5126,
      "count": 1002,
      "max": [
        1.0,
        1.0
      ],
      "min": [
        0.0,
        -2.421438694000244e-08
      ],
      "type": "VEC2"
    },
    {
      "bufferView": 0,
      "byteOffset": 169416,
      "componentType": 5125,
      "count": 2232,
      "type": "SCALAR"
    },
    {
      "bufferView": 2,
      "byteOffset": 469296,
      "componentType": 5126,
      "count": 16648,
      "max": [
        118.33557891845703,
        144.49655151367188,
        183.76824951171875
      ],
      "min": [
        -113.39586639404297,
        -7.292472839355469,
        -156.92132568359375
      ],
      "type": "VEC3"
    },
    {
      "bufferView": 2,
      "byteOffset": 669072,
      "componentType": 5126,
      "count": 16648,
      "max": [
        1.0,
        1.0,
        1.0
      ],
      "min": [
        -1.0,
        -1.0,
        -1.0
      ],
      "type": "VEC3"
    },
    {
      "bufferView": 1,
      "byteOffset": 156432,
      "componentType": 5126,
      "count": 16648,
      "max": [
        1.0000001192092896,
        0.75
      ],
      "min": [
        0.0,
        0.0
      ],
      "type": "VEC2"
    },
    {
      "bufferView": 0,
      "byteOffset": 178344,
      "componentType": 5125,
      "count": 25404,
      "type": "SCALAR"
    },
    {
      "bufferView": 2,
      "byteOffset": 868848,
      "componentType": 5126,
      "count": 424,
      "max": [
        74.46326446533203,
        126.0445556640625,
        192.64178466796875
      ],
      "min": [
        -72.57946014404297,
        89.34716796875,
        171.59315490722656
      ],
      "type": "VEC3"
    },
    {
      "bufferView": 2,
      "byteOffset": 873936,
      "componentType": 5126,
      "count": 424,
      "max": [
        1.0,
        1.0,
        1.0
      ],
      "min": [
        -1.0,
        -1.0,
        -1.0
      ],
      "type": "VEC3"
    },
    {
      "bufferView": 1,
      "byteOffset": 289616,
      "componentType": 5126,
      "count": 424,
      "max": [
        0.994717001914978,
        1.0
      ],
      "min": [
        0.013244000263512135,
        0.0
      ],
      "type": "VEC2"
    },
    {
      "bufferView": 0,
      "byteOffset": 279960,
      "componentType": 5125,
      "count": 1008,
      "type": "SCALAR"
    }
  ],
  "asset": {
    "extras": {
      "author": "Moderately_damp (https://sketchfab.com/Moderately_damp)",
      "license": "CC-BY-4.0 (http://creativecommons.org/licenses/by/4.0/)",
      "source": "https://sketchfab.com/3d-models/red-lego-car-f55e4d6ed9354e3e933a28879153716b",
      "title": "Red Lego Car"
    },
    "generator": "Sketchfab-15.37.0",
    "version": "2.0"
  },
  "bufferViews": [
    {
      "buffer": 0,
      "byteLength": 283992,
      "name": "floatBufferViews",
      "target": 34963
    },
    {
      "buffer": 0,
      "byteLength": 293008,
      "byteOffset": 283992,
      "byteStride": 8,
      "name": "floatBufferViews",
      "target": 34962
    },
    {
      "buffer": 0,
      "byteLength": 879024,
      "byteOffset": 577000,
      "byteStride": 12,
      "name": "floatBufferViews",
      "target": 34962
    }
  ],
  "buffers": [
    {
      "byteLength": 1456024,
      "uri": "scene.bin"
    }
  ],
  "extensionsUsed": [
    "KHR_materials_emissive_strength"
  ],
  "materials": [
    {
      "doubleSided": true,
      "name": "LegoRed",
      "pbrMetallicRoughness": {
        "baseColorFactor": [
          0.75,
          0.0577,
          0.0,
          1.0
        ],
        "metallicFactor": 0.0,
        "roughnessFactor": 0.7885257473118872
      }
    },
    {
      "alphaMode": "BLEND",
      "doubleSided": true,
      "name": "LegoGlass",
      "pbrMetallicRoughness": {
        "baseColorFactor": [
          0.00533003203275762,
          0.2331617938046786,
          0.43425069249245785,
          0.41295363947775837
        ],
        "metallicFactor": 0.5775255696017358,
        "roughnessFactor": 0.5139032804671405
      }
    },
    {
      "doubleSided": true,
      "name": "LegoBlackPhong",
      "pbrMetallicRoughness": {
        "baseColorFactor": [
          0.048951,
          0.048951,
          0.048951,
          1.0
        ],
        "metallicFactor": 0.0,
        "roughnessFactor": 0.7885257473118872
      }
    },
    {
      "alphaMode": "BLEND",
      "doubleSided": true,
      "emissiveFactor": [
        0.28024735638623915,
        0.1468004695390677,
        0.0
      ],
      "extensions": {
        "KHR_materials_emissive_strength": {
          "emissiveStrength": 1.2647657592861234
        }
      },
      "name": "lambert4",
      "pbrMetallicRoughness": {
        "baseColorFactor": [
          0.82,
          0.47307200000000005,
          0.0,
          0.30933427606636515
        ],
        "metallicFactor": 0.0,
        "roughnessFactor": 0.6
      }
    }
  ],
  "meshes": [
    {
      "name": "L1x4Flat5_LegoRed_0",
      "primitives": [
        {
          "attributes": {
            "NORMAL": 1,
            "POSITION": 0,
            "TEXCOORD_0": 2
          },
          "indices": 3,
          "material": 0,
          "mode": 4
        }
      ]
    },
    {
      "name": "L1x4Flat5_LegoGlass_0",
      "primitives": [
        {
          "attributes": {
            "NORMAL": 5,
            "POSITION": 4,
            "TEXCOORD_0": 6
          },
          "indices": 7,
          "material": 1,
          "mode": 4
        }
      ]
    },
    {
      "name": "L1x4Flat5_LegoBlackPhong_0",
      "primitives": [
        {
          "attributes": {
            "NORMAL": 9,
            "POSITION": 8,
            "TEXCOORD_0": 10
          },
          "indices": 11,
          "material": 2,
          "mode": 4
        }
      ]
    },
    {
      "name": "L1x4Flat5_lambert4_0",
      "primitives": [
        {
          "attributes": {
            "NORMAL": 13,
            "POSITION": 12,
            "TEXCOORD_0": 14
          },
          "indices": 15,
          "material": 3,
          "mode": 4
        }
      ]
    }
  ],
  "nodes": [
    {
      "children": [
        1
      ],
      "matrix": [
        1.0,
        0.0,
        0.0,
        0.0,
        0.0,
        2.220446049250313e-16,
        -1.0,
        0.0,
        0.0,
        1.0,
        2.220446049250313e-16,
        0.0,
        0.0,
        0.0,
        0.0,
        1.0
      ],
      "name": "Sketchfab_model"
    },
    {
      "children": [
        2
      ],
      "matrix": [
        0.009999999776482582,
        0.0,
        0.0,
        0.0,
        0.0,
        0.0,
        0.009999999776482582,
        0.0,
        0.0,
        -0.009999999776482582,
        0.0,
        0.0,
        0.0,
        0.0,
        0.0,
        1.0
      ],
      "name": "832e6636628e40c4a4aa5041fcecd508.fbx"
    },
    {
      "children": [
        3
      ],
      "name": "RootNode"
    },
    {
      "children": [
        4,
        5,
        6,
        7
      ],
      "name": "L1x4Flat5"
    },
    {
      "mesh": 0,
      "name": "L1x4Flat5_LegoRed_0"
    },
    {
      "mesh": 1,
      "name": "L1x4Flat5_LegoGlass_0"
    },
    {
      "mesh": 2,
      "name": "L1x4Flat5_LegoBlackPhong_0"
    },
    {
      "mesh": 3,
      "name": "L1x4Flat5_lambert4_0"
    }
  ],
  "scene": 0,
  "scenes": [
    {
      "name": "Sketchfab_Scene",
      "nodes": [
        0
      ]
    }
  ]
}
